<?xml version="1.0" encoding="UTF-8"?>
<svg version="1.1" xmlns="http://www.w3.org/2000/svg" width="150" height="150">
<path d="M0 0 C49.5 0 99 0 150 0 C150 49.5 150 99 150 150 C100.5 150 51 150 0 150 C0 100.5 0 51 0 0 Z " fill="#D5E5F9" transform="translate(0,0)"/>
<path d="M0 0 C49.5 0 99 0 150 0 C150 49.5 150 99 150 150 C129.87 150 109.74 150 89 150 C98.33333333 143 98.33333333 143 103 143 C103.33 142.01 103.66 141.02 104 140 C105.30887458 138.64264858 106.64852862 137.31494512 108 136 C113.28788674 130.83437654 116.26991406 124.82038925 119.38671875 118.20703125 C120.74411737 115.50866741 122.17965043 113.37922882 124 111 C124.71433121 108.35065178 124.71433121 108.35065178 125 106 C125.66 106 126.32 106 127 106 C127.12117188 105.12859375 127.24234375 104.2571875 127.3671875 103.359375 C128.32556297 96.54753705 129.35009619 89.77064699 130.6328125 83.01171875 C132.26621494 69.61434341 131.4127665 50.0178798 125 38 C122.21521162 35.58892781 119.54506065 33.89984755 116.265625 32.234375 C115.51796875 31.82703125 114.7703125 31.4196875 114 31 C114 30.34 114 29.68 114 29 C113.0925 28.896875 112.185 28.79375 111.25 28.6875 C108 28 108 28 106.08984375 26.5546875 C100.38469054 22.31048007 91.87113982 21.40227343 85 20 C84.25548584 19.82960205 83.51097168 19.6592041 82.74389648 19.48364258 C77.50630377 18.56045803 72.17932674 18.81535793 66.875 18.8125 C65.70195313 18.80025391 64.52890625 18.78800781 63.3203125 18.77539062 C53.5128203 18.7590448 44.45531369 19.51835249 35.4375 23.625 C30.15895954 26 30.15895954 26 28 26 C28 26.66 28 27.32 28 28 C27.01 28.33 26.02 28.66 25 29 C13.10934793 41.80531761 12.51436643 55.85488975 12.29150391 72.56152344 C12.25000235 75.62482688 12.18727271 78.68713988 12.12109375 81.75 C12.08469698 83.72133165 12.0494998 85.6926859 12.015625 87.6640625 C11.9980011 88.5674234 11.9803772 89.4707843 11.96221924 90.40151978 C11.87194319 97.89836085 11.94970575 105.36789981 14.875 112.375 C15.20242188 113.18710938 15.52984375 113.99921875 15.8671875 114.8359375 C17.00624611 117.01193223 18.26112371 118.30086945 20 120 C20 120.66 20 121.32 20 122 C20.78375 122.268125 21.5675 122.53625 22.375 122.8125 C25 124 25 124 27 127 C28.485 127.495 28.485 127.495 30 128 C30 128.66 30 129.32 30 130 C30.66 130 31.32 130 32 130 C32 130.66 32 131.32 32 132 C33.32 132.33 34.64 132.66 36 133 C36 133.66 36 134.32 36 135 C37.65 135.66 39.3 136.32 41 137 C41 137.66 41 138.32 41 139 C41.556875 139.103125 42.11375 139.20625 42.6875 139.3125 C45 140 45 140 47.22265625 141.3828125 C51.34296895 143.78198192 55.75948198 145.20604677 60.234375 146.81640625 C63 148 63 148 64 150 C42.88 150 21.76 150 0 150 C0 100.5 0 51 0 0 Z " fill="#F6F6F7" transform="translate(0,0)"/>
<path d="M0 0 C7.91885578 -0.04628946 15.83765526 -0.08185182 23.75661278 -0.10362434 C27.4334935 -0.11407274 31.11028183 -0.12825102 34.78710938 -0.15087891 C38.33379655 -0.17256991 41.88039472 -0.18456067 45.4271431 -0.18975449 C46.78197252 -0.193457 48.13679694 -0.20068689 49.49158859 -0.21146011 C51.38545757 -0.22592448 53.27941564 -0.22681649 55.17333984 -0.22705078 C56.25255707 -0.231492 57.33177429 -0.23593323 58.44369507 -0.24050903 C61 0 61 0 63 2 C63.1953125 4.3828125 63.1953125 4.3828125 63.125 7.125 C63.10695313 8.03507812 63.08890625 8.94515625 63.0703125 9.8828125 C63.04710938 10.58148438 63.02390625 11.28015625 63 12 C63.65895264 11.93603027 64.31790527 11.87206055 64.99682617 11.80615234 C82.9932128 10.38881708 82.9932128 10.38881708 89.41259766 14.57226562 C95.16057127 20.04034497 99.71878977 27.257309 100.8046875 35.21484375 C100.87269799 38.93652863 100.58156786 42.32831036 100 46 C99.83085476 47.81227038 99.66376996 49.62473597 99.5 51.4375 C99.335 52.613125 99.17 53.78875 99 55 C94.38 55 89.76 55 85 55 C84.79375 56.051875 84.5875 57.10375 84.375 58.1875 C83.10758724 62.68271216 80.78265445 64.37530099 77 67 C73.27148658 68.24283781 69.87253239 68.5280726 66 68 C61.62424051 65.77083951 58.9850011 63.5213914 57 59 C56.95596252 57.33391522 56.94993913 55.66591467 57 54 C56.16597656 54.01160156 55.33195312 54.02320313 54.47265625 54.03515625 C47.88254338 54.08799793 41.53093626 53.88555068 35 53 C34.9071875 54.546875 34.9071875 54.546875 34.8125 56.125 C33.78845462 61.00890873 32.53920596 62.54123054 29 66 C24.97386343 68.39391904 20.58709064 68.71194531 16 68 C10.59750521 65.40264674 8.41529667 62.29507346 6 57 C5.75 54.0625 5.75 54.0625 6 52 C3.36 52 0.72 52 -2 52 C-2.44538403 34.63002298 -1.12165973 17.32307994 0 0 Z " fill="#1B2A43" transform="translate(23,40)"/>
<path d="M0 0 C15.51 0 31.02 0 47 0 C47 9.19278604 46.95000454 18.27321833 46.5 27.4375 C46.45230469 28.46681641 46.40460938 29.49613281 46.35546875 30.55664062 C46.24006026 33.03792317 46.12157578 35.51901338 46 38 C42.62546102 38.14611313 39.25174234 38.23433467 35.875 38.3125 C34.92367187 38.35439453 33.97234375 38.39628906 32.9921875 38.43945312 C26.24062424 38.55666776 23.88160263 37.53594002 19 33 C15.95055253 32.2935523 15.95055253 32.2935523 12.875 32.5 C11.86179687 32.5103125 10.84859375 32.520625 9.8046875 32.53125 C6.66483978 33.05601564 5.49010125 34.11992355 3 36 C0.37841797 36.09179688 0.37841797 36.09179688 -2 36 C-2.14691962 27.88167072 -1.70059361 19.89797737 -1 11.8125 C-0.67 7.914375 -0.34 4.01625 0 0 Z " fill="#5993F2" transform="translate(31,48)"/>
<path d="M0 0 C18.73221347 -2.4557547 18.73221347 -2.4557547 25.16894531 1.24804688 C31.18442584 6.61030666 34.01518773 13.5952645 34.640625 21.515625 C34.78575883 26.38902097 34.49174188 31.15212049 34 36 C30.37 36 26.74 36 23 36 C22.443125 34.741875 21.88625 33.48375 21.3125 32.1875 C19.38337422 28.4290308 18.14997925 26.41275889 14 25 C8.58833289 24.50876236 3.7933865 24.16908233 -1 27 C-1.09928082 19.24506486 -1.06059488 11.68931285 0 4 C14.57323762 3.88012613 14.57323762 3.88012613 18.0703125 6.625 C19.3125 8.5625 19.3125 8.5625 21 12 C21.99 12 22.98 12 24 12 C21.25938845 6.17597976 21.25938845 6.17597976 16 3 C13.22605167 2.7047806 10.5299489 2.49287769 7.75 2.375 C7.00492188 2.33632813 6.25984375 2.29765625 5.4921875 2.2578125 C3.6618476 2.16394892 1.83095857 2.08090282 0 2 C0 1.34 0 0.68 0 0 Z " fill="#1D2F4A" transform="translate(85,56)"/>
<path d="M0 0 C18.69445017 -0.15526952 37.32343398 0.26773839 56 1 C56.02519409 4.8736876 56.04308675 8.74734185 56.05493164 12.62109375 C56.06228369 14.56772545 56.07500578 16.51433456 56.08789062 18.4609375 C56.10975342 27.03115367 55.73307802 35.46257506 55 44 C53.68 43.67 52.36 43.34 51 43 C50.97017425 39.47918551 50.95293289 35.95840465 50.9375 32.4375 C50.92912109 31.46619141 50.92074219 30.49488281 50.91210938 29.49414062 C50.88522265 21.23991561 51.44684901 13.29726478 52 5 C36.49 5 20.98 5 5 5 C4.71267902 12.73193687 4.71267902 12.73193687 4.43188477 20.46411133 C4.16673476 27.33614932 3.70073822 34.1585595 3 41 C4.32 41.33 5.64 41.66 7 42 C6.195625 41.979375 5.39125 41.95875 4.5625 41.9375 C2.06645115 41.70366379 2.06645115 41.70366379 1 43 C2.32 43 3.64 43 5 43 C4.67 43.99 4.34 44.98 4 46 C2.02 46 0.04 46 -2 46 C-1.40636312 30.66278986 -0.75763472 15.33001319 0 0 Z " fill="#2E4E80" transform="translate(26,43)"/>
<path d="M0 0 C4.45831982 -0.02891546 8.91661569 -0.04676981 13.375 -0.0625 C14.64601563 -0.07087891 15.91703125 -0.07925781 17.2265625 -0.08789062 C19.04414062 -0.09272461 19.04414062 -0.09272461 20.8984375 -0.09765625 C22.57945557 -0.10551147 22.57945557 -0.10551147 24.29443359 -0.11352539 C27 0 27 0 29 1 C29 1.66 29 2.32 29 3 C20.42 3 11.84 3 3 3 C3.04125 5.949375 3.0825 8.89875 3.125 11.9375 C3.20713037 24.35120483 2.15590414 36.64934873 1 49 C3.97065509 48.65772428 3.97065509 48.65772428 7 48 C7.33 47.34 7.66 46.68 8 46 C6.68 46 5.36 46 4 46 C4 44.02 4 42.04 4 40 C4.33 40 4.66 40 5 40 C5 41.65 5 43.3 5 45 C9.2057497 43.79744696 9.2057497 43.79744696 12.83203125 41.45703125 C17.00799954 38.65047959 22.18359147 39.26406855 27 40 C29.43283614 41.44465321 30.34844402 42.64063432 32 45 C29.03 45.495 29.03 45.495 26 46 C26 45.34 26 44.68 26 44 C22.37 44 18.74 44 15 44 C15 44.66 15 45.32 15 46 C14.01 46 13.02 46 12 46 C12.66 47.98 13.32 49.96 14 52 C13.34 52 12.68 52 12 52 C13.46732243 57.4843174 13.46732243 57.4843174 17.125 61.5625 C22.23147819 62.33957277 27.12133156 61.62622281 32 60 C31.62118922 62.74637817 31.22167713 63.80049058 29.125 65.6875 C24.9658323 68.2563977 20.77449752 68.63418373 16 68 C10.59750521 65.40264674 8.41529667 62.29507346 6 57 C5.75 54.0625 5.75 54.0625 6 52 C3.36 52 0.72 52 -2 52 C-2.44538403 34.63002298 -1.12165973 17.32307994 0 0 Z " fill="#253347" transform="translate(23,40)"/>
<path d="M0 0 C1.22589844 0.15275391 1.22589844 0.15275391 2.4765625 0.30859375 C3.41628906 0.43427734 3.41628906 0.43427734 4.375 0.5625 C4.375 1.2225 4.375 1.8825 4.375 2.5625 C5.30828125 2.39105469 6.2415625 2.21960938 7.203125 2.04296875 C12.19165494 1.33337172 17.10839604 1.62103877 22.125 1.875 C23.06988281 1.91044922 24.01476562 1.94589844 24.98828125 1.98242188 C25.89449219 2.02560547 26.80070312 2.06878906 27.734375 2.11328125 C28.96365723 2.16995972 28.96365723 2.16995972 30.21777344 2.2277832 C32.375 2.5625 32.375 2.5625 35.375 4.5625 C35.375 5.5525 35.375 6.5425 35.375 7.5625 C33.395 7.8925 31.415 8.2225 29.375 8.5625 C30.035 9.2225 30.695 9.8825 31.375 10.5625 C25.26014973 10.65956112 19.44196699 10.33290851 13.375 9.5625 C13.25125 10.67625 13.1275 11.79 13 12.9375 C12.375 16.5625 12.375 16.5625 10.375 18.5625 C10.375 17.9025 10.375 17.2425 10.375 16.5625 C9.385 17.078125 8.395 17.59375 7.375 18.125 C2.94997866 20.00989753 0.03139811 19.70751593 -4.625 18.5625 C-7.83335903 16.34132836 -8.49432696 15.12874985 -9.375 11.3125 C-9.4575 10.405 -9.54 9.4975 -9.625 8.5625 C-8.965 8.5625 -8.305 8.5625 -7.625 8.5625 C-8.285 7.5725 -8.945 6.5825 -9.625 5.5625 C-9.625 4.5725 -9.625 3.5825 -9.625 2.5625 C-8.635 2.5625 -7.645 2.5625 -6.625 2.5625 C-6.625 1.9025 -6.625 1.2425 -6.625 0.5625 C-4.10446405 -0.69776798 -2.7707902 -0.35624445 0 0 Z " fill="#20304C" transform="translate(44.625,83.4375)"/>
<path d="M0 0 C0.33 0 0.66 0 1 0 C1 5.61 1 11.22 1 17 C-3.62 17 -8.24 17 -13 17 C-13.20625 18.051875 -13.4125 19.10375 -13.625 20.1875 C-14.89241276 24.68271216 -17.21734555 26.37530099 -21 29 C-24.72453882 30.24151294 -28.13137946 30.54014702 -32 30 C-37.66176471 27.01470588 -37.66176471 27.01470588 -39 23 C-38.72230092 20.6593935 -38.39460023 18.32375692 -38 16 C-32.25 15.875 -32.25 15.875 -30 17 C-29.67 16.34 -29.34 15.68 -29 15 C-28.02160156 15.03480469 -28.02160156 15.03480469 -27.0234375 15.0703125 C-21.44133871 15.22218606 -21.44133871 15.22218606 -16.0625 13.9375 C-11.34295371 12.49274093 -6.83636162 13.3631837 -2 14 C-2.02320313 13.24074219 -2.04640625 12.48148438 -2.0703125 11.69921875 C-2.08835938 10.70535156 -2.10640625 9.71148437 -2.125 8.6875 C-2.14820313 7.70136719 -2.17140625 6.71523437 -2.1953125 5.69921875 C-2 3 -2 3 0 0 Z " fill="#1F2B3D" transform="translate(121,78)"/>
<path d="M0 0 C6.10494215 -0.09690384 11.94653597 0.243317 18 1 C20.02450921 1 22.02400526 0.40533225 24 0 C27.92162246 4.65692667 28.40993885 7.88162681 28.23828125 13.92578125 C28 16 28 16 27 17 C23.6875 17.375 23.6875 17.375 20 17 C17.8125 14.625 17.8125 14.625 16 12 C12.80198217 9.9127981 10.20894215 9.75605665 6.4375 9.8125 C5.48746094 9.81894531 4.53742188 9.82539062 3.55859375 9.83203125 C0.8795058 9.89938566 0.8795058 9.89938566 -2 11 C-2 8.03 -2 5.06 -2 2 C-1.34 2 -0.68 2 0 2 C0 1.34 0 0.68 0 0 Z " fill="#77ADF1" transform="translate(87,71)"/>
<path d="M0 0 C18.69537863 -0.15527723 37.32242894 0.27666391 56 1 C56 5.62 56 10.24 56 15 C55.34 15 54.68 15 54 15 C53.505 9.555 53.505 9.555 53 4 C36.5 3.34 20 2.68 3 2 C2.67 8.93 2.34 15.86 2 23 C1.814318 26.77094917 1.62806538 30.54180469 1.4375 34.3125 C1.39431641 35.17166016 1.35113281 36.03082031 1.30664062 36.91601562 C1.20467378 38.94402284 1.10237955 40.97201358 1 43 C2.32 43 3.64 43 5 43 C4.67 43.99 4.34 44.98 4 46 C2.02 46 0.04 46 -2 46 C-1.40636312 30.66278986 -0.75763472 15.33001319 0 0 Z " fill="#8CAADF" transform="translate(26,43)"/>
<path d="M0 0 C18.73221347 -2.4557547 18.73221347 -2.4557547 25.16894531 1.24804688 C31.18442584 6.61030666 34.01518773 13.5952645 34.640625 21.515625 C34.78575883 26.38902097 34.49174188 31.15212049 34 36 C30.37 36 26.74 36 23 36 C23 35.34 23 34.68 23 34 C25.64 34 28.28 34 31 34 C32.1809406 27.0018335 32.29581316 21.56267669 28.43359375 15.54296875 C23.3599582 7.8472671 23.3599582 7.8472671 16 3 C13.26710707 2.77202438 10.54957796 2.58331813 7.8125 2.4375 C7.06291016 2.39431641 6.31332031 2.35113281 5.54101562 2.30664062 C3.69421625 2.20077315 1.84713166 2.0999024 0 2 C0 1.34 0 0.68 0 0 Z " fill="#7F9FC9" transform="translate(85,56)"/>
<path d="M0 0 C18.66017581 -2.79795024 18.66017581 -2.79795024 25.36523438 1.52490234 C31.82621996 7.66836086 36.47607687 15.61849957 36.86352539 24.63061523 C36.79109734 27.46154698 36.48124268 30.21126036 36 33 C35.67 33 35.34 33 35 33 C34.505 29.535 34.505 29.535 34 26 C33.34 26.66 32.68 27.32 32 28 C32.04125 26.80375 32.0825 25.6075 32.125 24.375 C31.47801132 17.72480489 27.09167503 13.05415536 23.15234375 7.94140625 C21 5 21 5 21 3 C19.10314453 3.05220703 19.10314453 3.05220703 17.16796875 3.10546875 C15.50782577 3.13360677 13.84766844 3.16090691 12.1875 3.1875 C11.35412109 3.21263672 10.52074219 3.23777344 9.66210938 3.26367188 C8.45844727 3.27817383 8.45844727 3.27817383 7.23046875 3.29296875 C6.12288208 3.31653442 6.12288208 3.31653442 4.99291992 3.34057617 C2.47769478 2.91074167 1.60558484 1.92536938 0 0 Z " fill="#243143" transform="translate(87,53)"/>
<path d="M0 0 C0.99 0.495 0.99 0.495 2 1 C4.09821215 0.60061233 4.09821215 0.60061233 6 0 C6.15855469 0.55429688 6.31710938 1.10859375 6.48046875 1.6796875 C7.88976479 6.23880175 7.88976479 6.23880175 11.125 9.5625 C16.23147819 10.33957277 21.12133156 9.62622281 26 8 C25.62118922 10.74637817 25.22167713 11.80049058 23.125 13.6875 C18.9658323 16.2563977 14.77449752 16.63418373 10 16 C4.59750521 13.40264674 2.41529667 10.29507346 0 5 C-0.25 2.0625 -0.25 2.0625 0 0 Z " fill="#273446" transform="translate(29,92)"/>
<path d="M0 0 C1.485 0.99 1.485 0.99 3 2 C2.51963048 6.56351039 2.51963048 6.56351039 0.4375 8.3125 C-3.56682767 9.44192575 -8.20257014 9.89871493 -12 8 C-12.33 8.99 -12.66 9.98 -13 11 C-15.64 10.34 -18.28 9.68 -21 9 C-20.814375 9.78375 -20.62875 10.5675 -20.4375 11.375 C-20 14 -20 14 -21 16 C-21.66 16 -22.32 16 -23 16 C-23.33 13.69 -23.66 11.38 -24 9 C-24.969375 8.87625 -25.93875 8.7525 -26.9375 8.625 C-27.948125 8.41875 -28.95875 8.2125 -30 8 C-30.33 7.34 -30.66 6.68 -31 6 C-24.97968656 5.39034801 -19.05329744 4.86548228 -13 5 C-12.67 4.34 -12.34 3.68 -12 3 C-9.69 3 -7.38 3 -5 3 C-5.99 3.99 -6.98 4.98 -8 6 C-5.36 6.33 -2.72 6.66 0 7 C0 6.01 0 5.02 0 4 C-0.66 3.67 -1.32 3.34 -2 3 C-2 2.34 -2 1.68 -2 1 C-1.34 0.67 -0.68 0.34 0 0 Z " fill="#1D293C" transform="translate(104,85)"/>
<path d="M0 0 C2.875 -0.1875 2.875 -0.1875 6 0 C6.66 0.99 7.32 1.98 8 3 C10.5 3.41666667 10.5 3.41666667 13 3 C13.66 2.34 14.32 1.68 15 1 C17.625 0.875 17.625 0.875 20 1 C18.11007896 7.54203437 18.11007896 7.54203437 15 10 C11.8900339 10.8174768 9.11973128 10.75871016 6 10 C3.41989584 8.03345719 1.55477075 5.84736448 0 3 C0 2.01 0 1.02 0 0 Z " fill="#D3E2F5" transform="translate(83,94)"/>
<path d="M0 0 C2.475 1.485 2.475 1.485 5 3 C4.4740625 3.86625 4.4740625 3.86625 3.9375 4.75 C2.63716826 7.24020355 2.63716826 7.24020355 4 11 C0.7 11 -2.6 11 -6 11 C-4.68 10.01 -3.36 9.02 -2 8 C-4.97 7.505 -4.97 7.505 -8 7 C-8.33 7.99 -8.66 8.98 -9 10 C-11.31 10 -13.62 10 -16 10 C-15.5625 7.6875 -15.5625 7.6875 -14 5 C-10.06919331 2.92497256 -6.36788263 1.86042014 -1.9375 2.3125 C-1.298125 2.539375 -0.65875 2.76625 0 3 C0 2.01 0 1.02 0 0 Z " fill="#253A57" transform="translate(100,81)"/>
<path d="M0 0 C0.33 0 0.66 0 1 0 C1.144375 0.7425 1.28875 1.485 1.4375 2.25 C1.9123163 4.84520984 1.9123163 4.84520984 2.55639648 6.68261719 C3.20723792 10.08260997 2.89216635 13.39811136 2.66015625 16.828125 C2.61434921 17.57713074 2.56854218 18.32613647 2.52134705 19.09783936 C2.3741885 21.48229614 2.21846252 23.86610448 2.0625 26.25 C1.96102246 27.8697563 1.86010456 29.48954777 1.75976562 31.109375 C1.51299458 35.07335348 1.25854016 39.03677244 1 43 C2.32 43 3.64 43 5 43 C4.67 43.99 4.34 44.98 4 46 C2.02 46 0.04 46 -2 46 C-1.40636312 30.66278986 -0.75763472 15.33001319 0 0 Z " fill="#7192C8" transform="translate(26,43)"/>
<path d="M0 0 C0.99 0.33 1.98 0.66 3 1 C3.3125 3.25 3.3125 3.25 3 6 C-1.29432918 10.17826623 -4.94338864 11.35533149 -10.9296875 11.2890625 C-14.32709958 10.81470685 -16.44089215 9.18460426 -19 7 C-19.33 6.01 -19.66 5.02 -20 4 C-19.67 3.34 -19.34 2.68 -19 2 C-16.53199953 3.15173355 -14.95216435 4.04783565 -13 6 C-10.89582032 6.35639561 -10.89582032 6.35639561 -8.5625 6.3125 C-7.78003906 6.32925781 -6.99757813 6.34601563 -6.19140625 6.36328125 C-3.48074592 5.91392045 -2.65279365 5.15823513 -1 3 C-0.67 2.01 -0.34 1.02 0 0 Z " fill="#283446" transform="translate(102,97)"/>
<path d="M0 0 C0.99 0 1.98 0 3 0 C3.66 1.98 4.32 3.96 5 6 C7.37305578 6.41780879 7.37305578 6.41780879 10 6 C10.474375 5.175 10.94875 4.35 11.4375 3.5 C11.953125 2.675 12.46875 1.85 13 1 C16.1875 0.6875 16.1875 0.6875 19 1 C19.375 3.1875 19.375 3.1875 19 6 C14.83225568 10.79290597 14.83225568 10.79290597 10.9609375 11.23046875 C7.52238105 10.95358125 5.41787878 10.28930069 2.5625 8.3125 C0.68542079 5.53442277 0.30107544 3.3118298 0 0 Z " fill="#CFDEF1" transform="translate(35,92)"/>
<path d="M0 0 C4.45831982 -0.02891546 8.91661569 -0.04676981 13.375 -0.0625 C14.64601563 -0.07087891 15.91703125 -0.07925781 17.2265625 -0.08789062 C19.04414062 -0.09272461 19.04414062 -0.09272461 20.8984375 -0.09765625 C22.57945557 -0.10551147 22.57945557 -0.10551147 24.29443359 -0.11352539 C27 0 27 0 29 1 C29 1.66 29 2.32 29 3 C20.42 3 11.84 3 3 3 C3 5.97 3 8.94 3 12 C2.67 12 2.34 12 2 12 C0.39700517 7.79213858 -0.10043342 4.48184122 0 0 Z " fill="#1D2A3C" transform="translate(23,40)"/>
<path d="M0 0 C0.33 0 0.66 0 1 0 C1 1.65 1 3.3 1 5 C5.2057497 3.79744696 5.2057497 3.79744696 8.83203125 1.45703125 C13.00799954 -1.34952041 18.18359147 -0.73593145 23 0 C25.43283614 1.44465321 26.34844402 2.64063432 28 5 C26.02 5.33 24.04 5.66 22 6 C22 5.34 22 4.68 22 4 C18.37 4 14.74 4 11 4 C11 4.66 11 5.32 11 6 C7.37 6 3.74 6 0 6 C0 4.02 0 2.04 0 0 Z " fill="#192E4F" transform="translate(27,80)"/>
<path d="M0 0 C8.976 -0.176 8.976 -0.176 12 1 C12.99 2.98 13.98 4.96 15 7 C10.05 7 5.1 7 0 7 C0 4.69 0 2.38 0 0 Z " fill="#E9F1FA" transform="translate(87,62)"/>
<path d="M0 0 C19.35678114 -2.53763423 19.35678114 -2.53763423 25.18505859 1.52197266 C28.98060376 5.54275467 32.42908031 10.64977675 34 16 C33.505 17.485 33.505 17.485 33 19 C32.46117187 17.85660156 31.92234375 16.71320313 31.3671875 15.53515625 C27.01098203 7.08836334 27.01098203 7.08836334 19.31982422 2.14404297 C12.89466944 1.20883663 6.45312066 1.43299297 0 2 C0 1.34 0 0.68 0 0 Z " fill="#A4C1E4" transform="translate(85,56)"/>
<path d="M0 0 C1.22589844 0.15275391 1.22589844 0.15275391 2.4765625 0.30859375 C3.41628906 0.43427734 3.41628906 0.43427734 4.375 0.5625 C4.375 1.2225 4.375 1.8825 4.375 2.5625 C5.365 2.8925 6.355 3.2225 7.375 3.5625 C7.375 4.2225 7.375 4.8825 7.375 5.5625 C1.765 5.5625 -3.845 5.5625 -9.625 5.5625 C-9.625 4.5725 -9.625 3.5825 -9.625 2.5625 C-8.635 2.5625 -7.645 2.5625 -6.625 2.5625 C-6.625 1.9025 -6.625 1.2425 -6.625 0.5625 C-4.10446405 -0.69776798 -2.7707902 -0.35624445 0 0 Z " fill="#5474A3" transform="translate(44.625,83.4375)"/>
<path d="M0 0 C11.22 0 22.44 0 34 0 C34 0.33 34 0.66 34 1 C27.07 1 20.14 1 13 1 C13 1.66 13 2.32 13 3 C14.32 3.33 15.64 3.66 17 4 C12.05 4 7.1 4 2 4 C2 3.01 2 2.02 2 1 C1.34 0.67 0.68 0.34 0 0 Z " fill="#49566D" transform="translate(50,40)"/>
<path d="M0 0 C6.11485027 -0.09706112 11.93303301 0.22959149 18 1 C18 1.33 18 1.66 18 2 C16.95199219 2.13277344 15.90398437 2.26554687 14.82421875 2.40234375 C13.44529222 2.58057235 12.06638707 2.75896641 10.6875 2.9375 C9.65206055 3.06801758 9.65206055 3.06801758 8.59570312 3.20117188 C5.59857712 3.59210135 2.87549881 4.0415004 0 5 C-0.33 5.99 -0.66 6.98 -1 8 C3.95 8 8.9 8 14 8 C14 8.66 14 9.32 14 10 C13.09636719 9.98839844 12.19273438 9.97679688 11.26171875 9.96484375 C9.49248047 9.95130859 9.49248047 9.95130859 7.6875 9.9375 C6.51574219 9.92589844 5.34398438 9.91429688 4.13671875 9.90234375 C0.96940805 9.85100102 0.96940805 9.85100102 -2 11 C-2 8.03 -2 5.06 -2 2 C-1.34 2 -0.68 2 0 2 C0 1.34 0 0.68 0 0 Z " fill="#729DD3" transform="translate(87,71)"/>
<path d="M0 0 C2.27379807 1.76850961 3.78102954 3.27594449 5.25 5.75 C5.25 6.74 5.25 7.73 5.25 8.75 C3.93 9.08 2.61 9.41 1.25 9.75 C-2.75 4 -2.75 4 -2.75 1.75 C-5.72 1.75 -8.69 1.75 -11.75 1.75 C-12.08 1.09 -12.41 0.43 -12.75 -0.25 C-8.23047673 -1.75650776 -4.39040622 -1.99563919 0 0 Z " fill="#273750" transform="translate(103.75,59.25)"/>
<path d="M0 0 C5.47310214 -0.16078443 10.62614893 -0.13190444 16 1 C19.02514488 3.87850411 19.63114528 5.95047146 21 10 C16.38 10 11.76 10 7 10 C7 9.67 7 9.34 7 9 C11.455 8.505 11.455 8.505 16 8 C15.34 6.35 14.68 4.7 14 3 C13.39671875 2.93941406 12.7934375 2.87882812 12.171875 2.81640625 C10.97304687 2.69072266 10.97304687 2.69072266 9.75 2.5625 C8.56664063 2.44068359 8.56664063 2.44068359 7.359375 2.31640625 C5.17635361 2.02365007 3.1226818 1.57935581 1 1 C1 3.64 1 6.28 1 9 C0.67 9 0.34 9 0 9 C0 6.03 0 3.06 0 0 Z " fill="#8B93A3" transform="translate(85,60)"/>
<path d="M0 0 C7.26 0 14.52 0 22 0 C22.33 4.29 22.66 8.58 23 13 C22.01 13.33 21.02 13.66 20 14 C20 10.37 20 6.74 20 3 C13.4 2.67 6.8 2.34 0 2 C0 1.34 0 0.68 0 0 Z " fill="#1D293C" transform="translate(63,41)"/>
<path d="M0 0 C0.7734375 0.495 0.7734375 0.495 1.5625 1 C1.2325 1.99 0.9025 2.98 0.5625 4 C-4.0575 4 -8.6775 4 -13.4375 4 C-13.1075 2.68 -12.7775 1.36 -12.4375 0 C-8.17949462 -1.41933513 -4.20838462 -1.72651677 0 0 Z " fill="#79B1F7" transform="translate(99.4375,75)"/>
<path d="M0 0 C1.68933922 1.6436814 3.35259924 3.3142876 5 5 C5.8353125 5.85078125 5.8353125 5.85078125 6.6875 6.71875 C8.58996755 10.0254198 8.06924862 12.50192262 7.6875 16.25 C7.50767578 18.14492187 7.50767578 18.14492187 7.32421875 20.078125 C7.21722656 21.04234375 7.11023438 22.0065625 7 23 C4.03 23.33 1.06 23.66 -2 24 C-2 23.01 -2 22.02 -2 21 C1.465 20.505 1.465 20.505 5 20 C5.55567797 11.96923748 5.55567797 11.96923748 2 5 C0.41754725 3.24850835 0.41754725 3.24850835 -1 2 C-0.67 1.34 -0.34 0.68 0 0 Z " fill="#1F3E66" transform="translate(109,67)"/>
<path d="M0 0 C3.10414702 -0.02903577 6.20825909 -0.0468107 9.3125 -0.0625 C10.19357422 -0.07087891 11.07464844 -0.07925781 11.98242188 -0.08789062 C12.82998047 -0.09111328 13.67753906 -0.09433594 14.55078125 -0.09765625 C15.72120972 -0.10551147 15.72120972 -0.10551147 16.9152832 -0.11352539 C19 0 19 0 22 1 C21.67 1.99 21.34 2.98 21 4 C18.0610493 3.9131197 15.12518711 3.80626233 12.1875 3.6875 C11.35412109 3.66494141 10.52074219 3.64238281 9.66210938 3.61914062 C8.45844727 3.5659668 8.45844727 3.5659668 7.23046875 3.51171875 C6.12288208 3.47244263 6.12288208 3.47244263 4.99291992 3.43237305 C2.52833609 2.89767037 1.59947676 1.90034653 0 0 Z " fill="#1E2A3F" transform="translate(87,53)"/>
<path d="M0 0 C0 4.62 0 9.24 0 14 C-0.66 14 -1.32 14 -2 14 C-2.33 10.37 -2.66 6.74 -3 3 C-12.57 2.67 -22.14 2.34 -32 2 C-32 1.67 -32 1.34 -32 1 C-27.60344084 0.85738019 -23.206875 0.71496892 -18.81030273 0.57275391 C-17.31355607 0.52430919 -15.81681127 0.47580672 -14.32006836 0.42724609 C-12.17301917 0.3575967 -10.02596343 0.28815263 -7.87890625 0.21875 C-6.5854126 0.17685547 -5.29191895 0.13496094 -3.95922852 0.09179688 C-1 0 -1 0 0 0 Z " fill="#688ECA" transform="translate(82,44)"/>
<path d="M0 0 C1.051875 -0.00386719 1.051875 -0.00386719 2.125 -0.0078125 C4 0.125 4 0.125 6 1.125 C6 1.785 6 2.445 6 3.125 C4.02 3.125 2.04 3.125 0 3.125 C-0.33 4.115 -0.66 5.105 -1 6.125 C-3.31 6.125 -5.62 6.125 -8 6.125 C-6.22343211 1.17598944 -5.2693214 -0.01937251 0 0 Z " fill="#5E7DA4" transform="translate(92,84.875)"/>
<path d="M0 0 C7.26 0 14.52 0 22 0 C22 0.99 22 1.98 22 3 C14.74 2.67 7.48 2.34 0 2 C0 1.34 0 0.68 0 0 Z " fill="#7395CA" transform="translate(58,88)"/>
<path d="M0 0 C2.6328125 -0.46875 2.6328125 -0.46875 6 0 C8.38716457 2.19930709 10.08777295 4.80458963 11.875 7.5 C12.37257813 8.21542969 12.87015625 8.93085937 13.3828125 9.66796875 C14.60654389 11.43296595 15.80571433 13.21494668 17 15 C16.01 15.33 15.02 15.66 14 16 C12.72839334 14.41728767 11.45774715 12.83380365 10.1875 11.25 C9.47980469 10.36828125 8.77210937 9.4865625 8.04296875 8.578125 C6.80179263 7.01182244 5.58763225 5.4228898 4.42578125 3.796875 C2.9445756 1.74132617 2.9445756 1.74132617 0 0 Z " fill="#81ADE4" transform="translate(101,58)"/>
<path d="M0 0 C2.46800047 1.15173355 4.04783565 2.04783565 6 4 C8.32275177 4.40047444 10.65739357 4.7397104 13 5 C11.3125 7.0625 11.3125 7.0625 9 9 C4.61514585 9 2.18763596 6.82333471 -1 4 C-0.67 2.68 -0.34 1.36 0 0 Z " fill="#303D50" transform="translate(83,99)"/>
<path d="M0 0 C2.475 0.495 2.475 0.495 5 1 C5 5.95 5 10.9 5 16 C4.67 16 4.34 16 4 16 C3.67 13.69 3.34 11.38 3 9 C2.34 9.66 1.68 10.32 1 11 C0.67 7.37 0.34 3.74 0 0 Z " fill="#324056" transform="translate(118,70)"/>
<path d="M0 0 C0.66 1.32 1.32 2.64 2 4 C1.01 4.495 1.01 4.495 0 5 C0 3.35 0 1.7 0 0 Z M5 0 C6.01444479 2.02888958 7.00158839 4.00415425 7.8125 6.125 C9.42580499 8.67232367 11.18771058 9.1119086 14 10 C12.02 10.99 12.02 10.99 10 12 C5.2 8.67692308 5.2 8.67692308 4.1875 5.25 C4.125625 4.5075 4.06375 3.765 4 3 C3.34 3 2.68 3 2 3 C2 2.34 2 1.68 2 1 C2.99 0.67 3.98 0.34 5 0 Z " fill="#3F4B5E" transform="translate(29,92)"/>
<path d="M0 0 C1.65 0 3.3 0 5 0 C5 0.66 5 1.32 5 2 C5.66 2 6.32 2 7 2 C6.125 5.875 6.125 5.875 5 7 C3.33382885 7.04063832 1.66611905 7.042721 0 7 C-0.93423645 3.98968256 -1.04449911 3.13349732 0 0 Z " fill="#1E2A3E" transform="translate(40,92)"/>
<path d="M0 0 C0.33 0.66 0.66 1.32 1 2 C0.31292969 2.10957031 -0.37414063 2.21914062 -1.08203125 2.33203125 C-1.98308594 2.49058594 -2.88414063 2.64914063 -3.8125 2.8125 C-4.70582031 2.96332031 -5.59914063 3.11414063 -6.51953125 3.26953125 C-9.23403128 4.06891945 -10.20973704 4.86566247 -12 7 C-12.66 7.66 -13.32 8.32 -14 9 C-14.66 6.36 -15.32 3.72 -16 1 C-8.08 0.505 -8.08 0.505 0 0 Z " fill="#314057" transform="translate(52,88)"/>
<path d="M0 0 C0.66 0.33 1.32 0.66 2 1 C2.02688151 2.64574566 2.04634123 4.29161413 2.0625 5.9375 C2.07410156 6.85402344 2.08570312 7.77054687 2.09765625 8.71484375 C2 11 2 11 1 12 C-2.3125 12.4375 -2.3125 12.4375 -6 12 C-8.4375 9 -8.4375 9 -10 6 C-8.02 6.99 -8.02 6.99 -6 8 C-6 8.66 -6 9.32 -6 10 C-4.02 10 -2.04 10 0 10 C0 6.7 0 3.4 0 0 Z " fill="#719BD3" transform="translate(113,76)"/>
<path d="M0 0 C1.32 0.33 2.64 0.66 4 1 C3.01 1 2.02 1 1 1 C1 3.31 1 5.62 1 8 C2.65 8 4.3 8 6 8 C5.34 8.66 4.68 9.32 4 10 C3.01 10 2.02 10 1 10 C1 10.66 1 11.32 1 12 C0.34 12 -0.32 12 -1 12 C-1 15.3 -1 18.6 -1 22 C-1.33 22 -1.66 22 -2 22 C-2 17.38 -2 12.76 -2 8 C-1.34 8 -0.68 8 0 8 C0 5.36 0 2.72 0 0 Z " fill="#293C56" transform="translate(86,61)"/>
<path d="M0 0 C0.66 0 1.32 0 2 0 C1.62492618 2.71928517 1.15781339 3.84218661 -0.8125 5.8125 C-3 7 -3 7 -5.25 6.6875 C-5.8275 6.460625 -6.405 6.23375 -7 6 C-7 5.67 -7 5.34 -7 5 C-8.65 4.67 -10.3 4.34 -12 4 C-12 3.67 -12 3.34 -12 3 C-10.82630859 2.80083984 -10.82630859 2.80083984 -9.62890625 2.59765625 C-8.61699219 2.42105469 -7.60507812 2.24445313 -6.5625 2.0625 C-5.55316406 1.88847656 -4.54382812 1.71445313 -3.50390625 1.53515625 C-1.0712562 1.25248903 -1.0712562 1.25248903 0 0 Z " fill="#1F2B3E" transform="translate(53,100)"/>
<path d="M0 0 C1.98 0 3.96 0 6 0 C6.66 1.32 7.32 2.64 8 4 C7.01 4.99 6.02 5.98 5 7 C3.0625 6.3125 3.0625 6.3125 1 5 C0.25 2.375 0.25 2.375 0 0 Z " fill="#C4D4E7" transform="translate(83,94)"/>
<path d="M0 0 C0.40774658 0.4844458 0.81549316 0.9688916 1.2355957 1.46801758 C3.38133649 3.33110371 4.42659846 3.41229073 7.23046875 3.51171875 C8.43413086 3.56489258 8.43413086 3.56489258 9.66210938 3.61914062 C10.49548828 3.64169922 11.32886719 3.66425781 12.1875 3.6875 C13.03248047 3.72166016 13.87746094 3.75582031 14.74804688 3.79101562 C16.83156649 3.87341471 18.91576216 3.93838645 21 4 C21 4.33 21 4.66 21 5 C12.75 5 4.5 5 -4 5 C-3 2 -3 2 0 0 Z " fill="#B9C7DB" transform="translate(21,35)"/>
<path d="M0 0 C3.3 0.33 6.6 0.66 10 1 C8.02 1.99 8.02 1.99 6 3 C5.34 3.66 4.68 4.32 4 5 C1.375 5.125 1.375 5.125 -1 5 C-1 2 -1 2 0 0 Z " fill="#253347" transform="translate(92,93)"/>
<path d="M0 0 C0.33 0 0.66 0 1 0 C1 4.95 1 9.9 1 15 C2.32 15 3.64 15 5 15 C5 15.66 5 16.32 5 17 C3.02 17 1.04 17 -1 17 C-0.67 11.39 -0.34 5.78 0 0 Z " fill="#7F98C5" transform="translate(25,72)"/>
<path d="M0 0 C0.99 0 1.98 0 3 0 C3 3.63 3 7.26 3 11 C2.34 11 1.68 11 1 11 C0.67 11.66 0.34 12.32 0 13 C0 8.71 0 4.42 0 0 Z " fill="#162C4B" transform="translate(81,73)"/>
<path d="M0 0 C0.99 0 1.98 0 3 0 C3.2475 0.94875 3.495 1.8975 3.75 2.875 C4.6857077 6.08693191 4.6857077 6.08693191 7.125 7.375 C7.74375 7.58125 8.3625 7.7875 9 8 C8.01 8 7.02 8 6 8 C5.67 8.66 5.34 9.32 5 10 C1.32769295 6.92000054 0.43197635 4.7517398 0 0 Z " fill="#C0CEE0" transform="translate(35,92)"/>
<path d="M0 0 C6.11485027 -0.09706112 11.93303301 0.22959149 18 1 C18 1.33 18 1.66 18 2 C15.93831015 2.19620767 13.87559002 2.38160753 11.8125 2.5625 C10.66394531 2.66691406 9.51539062 2.77132812 8.33203125 2.87890625 C5.31368801 2.98859985 2.91076064 2.74002389 0 2 C0 1.34 0 0.68 0 0 Z " fill="#546F93" transform="translate(87,71)"/>
<path d="M0 0 C0.33 0 0.66 0 1 0 C1 2.64 1 5.28 1 8 C-2.3 8 -5.6 8 -9 8 C-9 7.34 -9 6.68 -9 6 C-6.36 6 -3.72 6 -1 6 C-0.67 4.02 -0.34 2.04 0 0 Z " fill="#93B0E0" transform="translate(117,84)"/>
<path d="M0 0 C1.2065625 0.0309375 1.2065625 0.0309375 2.4375 0.0625 C1.7775 2.0425 1.1175 4.0225 0.4375 6.0625 C-0.8825 5.4025 -2.2025 4.7425 -3.5625 4.0625 C-3.5625 0.08689024 -3.5625 0.08689024 0 0 Z " fill="#CCDCEE" transform="translate(100.5625,94.9375)"/>
<path d="M0 0 C3.15140423 0.34069235 4.60781561 0.58076841 6.8125 2.9375 C8 5 8 5 8 7 C7.34 7 6.68 7 6 7 C5.67 7.66 5.34 8.32 5 9 C3.4375 6.6875 3.4375 6.6875 2 4 C2.33 3.01 2.66 2.02 3 1 C2.01 0.67 1.02 0.34 0 0 Z " fill="#323D50" transform="translate(106,53)"/>
<path d="M0 0 C0.33 0 0.66 0 1 0 C1 4.62 1 9.24 1 14 C0.34 14 -0.32 14 -1 14 C-1.22142255 12.04310341 -1.4267568 10.08438048 -1.625 8.125 C-1.74101563 7.03445312 -1.85703125 5.94390625 -1.9765625 4.8203125 C-1.98429687 3.88960937 -1.99203125 2.95890625 -2 2 C-1.34 1.34 -0.68 0.68 0 0 Z " fill="#7795C7" transform="translate(81,44)"/>
<path d="M0 0 C9.99562363 -0.63019694 9.99562363 -0.63019694 14.1875 2 C15.0846875 2.99 15.0846875 2.99 16 4 C13.03 4 10.06 4 7 4 C7.99 3.67 8.98 3.34 10 3 C10 2.34 10 1.68 10 1 C6.7 1 3.4 1 0 1 C0 0.67 0 0.34 0 0 Z " fill="#2C3C53" transform="translate(60,90)"/>
<path d="M0 0 C0.33 0.99 0.66 1.98 1 3 C0.030625 3.12375 -0.93875 3.2475 -1.9375 3.375 C-2.948125 3.58125 -3.95875 3.7875 -5 4 C-5.33 4.66 -5.66 5.32 -6 6 C-6.33 4.35 -6.66 2.7 -7 1 C-4.53721199 -0.231394 -2.7204945 -0.07159196 0 0 Z " fill="#1B2838" transform="translate(36,89)"/>
<path d="M0 0 C2.8125 -0.25 2.8125 -0.25 6 0 C8.467339 2.2206051 8.96152446 3.43569203 9.1875 6.75 C9.125625 7.4925 9.06375 8.235 9 9 C8.443125 8.2575 7.88625 7.515 7.3125 6.75 C5.06972822 4.08292005 2.77925025 2.08443768 0 0 Z " fill="#7DA5D8" transform="translate(101,58)"/>
<path d="M0 0 C0.33 0 0.66 0 1 0 C1 3.3 1 6.6 1 10 C2.65 10 4.3 10 6 10 C5.34 10.66 4.68 11.32 4 12 C4.33 12.66 4.66 13.32 5 14 C3.35 14 1.7 14 0 14 C0 9.38 0 4.76 0 0 Z " fill="#516073" transform="translate(85,42)"/>
<path d="M0 0 C0.66 0.33 1.32 0.66 2 1 C2.1875 3.875 2.1875 3.875 2 7 C1.01 7.66 0.02 8.32 -1 9 C-1.09765625 2.84765625 -1.09765625 2.84765625 -1 1 C-0.67 0.67 -0.34 0.34 0 0 Z " fill="#1B293B" transform="translate(22,81)"/>
<path d="M0 0 C0 0.99 0 1.98 0 3 C-2.31 3.33 -4.62 3.66 -7 4 C-6.67 3.01 -6.34 2.02 -6 1 C-3 0 -3 0 0 0 Z " fill="#1D2B3D" transform="translate(99,104)"/>
<path d="M0 0 C0.66 0 1.32 0 2 0 C1.34 1.98 0.68 3.96 0 6 C-0.33 5.34 -0.66 4.68 -1 4 C-2.65 4.66 -4.3 5.32 -6 6 C-4 4 -2 2 0 0 Z " fill="#2E3C4F" transform="translate(56,96)"/>
<path d="M0 0 C0.66 0 1.32 0 2 0 C5 3.46153846 5 3.46153846 5 6 C3.35 5.67 1.7 5.34 0 5 C0 3.33333333 0 1.66666667 0 0 Z " fill="#2A354A" transform="translate(116,64)"/>
<path d="M0 0 C0.99 0.33 1.98 0.66 3 1 C2.34 1 1.68 1 1 1 C1 2.32 1 3.64 1 5 C-0.98 5.99 -0.98 5.99 -3 7 C-3 5.35 -3 3.7 -3 2 C-2.01 2 -1.02 2 0 2 C0 1.34 0 0.68 0 0 Z " fill="#273246" transform="translate(57,91)"/>
<path d="M0 0 C2 3 2 3 1.625 5.1875 C1.41875 5.785625 1.2125 6.38375 1 7 C0.34 7 -0.32 7 -1 7 C-1.33 5.02 -1.66 3.04 -2 1 C-1.34 0.67 -0.68 0.34 0 0 Z " fill="#212E41" transform="translate(82,94)"/>
<path d="M0 0 C0.66 0 1.32 0 2 0 C2.33 1.98 2.66 3.96 3 6 C2.01 6 1.02 6 0 6 C-0.38218767 4.34385343 -0.71395102 2.67542976 -1 1 C-0.67 0.67 -0.34 0.34 0 0 Z " fill="#202D41" transform="translate(31,95)"/>
<path d="M0 0 C0.86625 0.3403125 0.86625 0.3403125 1.75 0.6875 C1.75 1.3475 1.75 2.0075 1.75 2.6875 C-0.89 2.6875 -3.53 2.6875 -6.25 2.6875 C-2.80384615 -0.38942308 -2.80384615 -0.38942308 0 0 Z " fill="#4D5D7A" transform="translate(100.25,89.3125)"/>
</svg>
